<svg xmlns="http://www.w3.org/2000/svg" xmlns:xlink="http://www.w3.org/1999/xlink" width="500" zoomAndPan="magnify" viewBox="0 0 375 374.999991" height="500" preserveAspectRatio="xMidYMid meet" version="1.0"><defs><g/><clipPath id="4aa6572b88"><path d="M 6.28125 6.28125 L 368.53125 6.28125 L 368.53125 368.53125 L 6.28125 368.53125 Z M 6.28125 6.28125 " clip-rule="nonzero"/></clipPath><clipPath id="8d263685e7"><path d="M 27 68 L 81 68 L 81 122 L 27 122 Z M 27 68 " clip-rule="nonzero"/></clipPath><clipPath id="7ae78e568c"><path d="M 49.265625 68.03125 L 80.492188 90.121094 L 58.40625 121.347656 L 27.175781 99.257812 Z M 49.265625 68.03125 " clip-rule="nonzero"/></clipPath><clipPath id="6daf24ff31"><path d="M -665.839844 -585.261719 L 1291.734375 904.535156 L 1176.367188 1056.128906 L -781.207031 -433.667969 Z M -665.839844 -585.261719 " clip-rule="nonzero"/></clipPath><clipPath id="3d1ce1b0a5"><path d="M 53 96 L 60 96 L 60 102 L 53 102 Z M 53 96 " clip-rule="nonzero"/></clipPath><clipPath id="d21c338223"><path d="M 43.113281 81.480469 L 69.46875 87.351562 L 64.898438 107.851562 L 38.546875 101.976562 Z M 43.113281 81.480469 " clip-rule="nonzero"/></clipPath><clipPath id="3b3f19dee2"><path d="M 43.113281 81.480469 L 69.46875 87.351562 L 64.898438 107.851562 L 38.546875 101.976562 Z M 43.113281 81.480469 " clip-rule="nonzero"/></clipPath><clipPath id="3f5de21cbf"><path d="M 52 100 L 55 100 L 55 103 L 52 103 Z M 52 100 " clip-rule="nonzero"/></clipPath><clipPath id="27e078bb89"><path d="M 43.113281 81.480469 L 69.46875 87.351562 L 64.898438 107.851562 L 38.546875 101.976562 Z M 43.113281 81.480469 " clip-rule="nonzero"/></clipPath><clipPath id="02ad623e40"><path d="M 43.113281 81.480469 L 69.46875 87.351562 L 64.898438 107.851562 L 38.546875 101.976562 Z M 43.113281 81.480469 " clip-rule="nonzero"/></clipPath><clipPath id="ba6cae01d1"><path d="M 58 87 L 69 87 L 69 98 L 58 98 Z M 58 87 " clip-rule="nonzero"/></clipPath><clipPath id="351ff59870"><path d="M 43.113281 81.480469 L 69.46875 87.351562 L 64.898438 107.851562 L 38.546875 101.976562 Z M 43.113281 81.480469 " clip-rule="nonzero"/></clipPath><clipPath id="aad077c074"><path d="M 43.113281 81.480469 L 69.46875 87.351562 L 64.898438 107.851562 L 38.546875 101.976562 Z M 43.113281 81.480469 " clip-rule="nonzero"/></clipPath><clipPath id="4401b78db8"><path d="M 38 101 L 53 101 L 53 105 L 38 105 Z M 38 101 " clip-rule="nonzero"/></clipPath><clipPath id="5fa6e892e0"><path d="M 43.113281 81.480469 L 69.46875 87.351562 L 64.898438 107.851562 L 38.546875 101.976562 Z M 43.113281 81.480469 " clip-rule="nonzero"/></clipPath><clipPath id="23c3e1023d"><path d="M 43.113281 81.480469 L 69.46875 87.351562 L 64.898438 107.851562 L 38.546875 101.976562 Z M 43.113281 81.480469 " clip-rule="nonzero"/></clipPath></defs><rect x="-37.5" width="450" fill="#ffffff" y="-37.499999" height="449.999989" fill-opacity="1"/><rect x="-37.5" width="450" fill="#0b3a42" y="-37.499999" height="449.999989" fill-opacity="1"/><g fill="#d7f1ff" fill-opacity="1"><g transform="translate(108.611789, 289.803315)"><g><path d="M 98.109375 0 L 59.546875 0 L 59.546875 -151.984375 L 3.765625 -151.984375 L 3.765625 -184.640625 L 154 -184.640625 L 154 -151.984375 L 98.109375 -151.984375 Z M 98.109375 0 "/></g></g></g><g clip-path="url(#4aa6572b88)"><path fill="#c0e7eb" d="M 187.5 6.28125 C 87.375 6.28125 6.28125 87.375 6.28125 187.5 C 6.28125 287.625 87.375 368.71875 187.5 368.71875 C 287.625 368.71875 368.71875 287.625 368.71875 187.5 C 368.71875 87.375 287.625 6.28125 187.5 6.28125 Z M 187.5 332.476562 C 107.402344 332.476562 42.523438 267.597656 42.523438 187.5 C 42.523438 107.402344 107.402344 42.523438 187.5 42.523438 C 267.597656 42.523438 332.476562 107.402344 332.476562 187.5 C 332.476562 267.597656 267.597656 332.476562 187.5 332.476562 Z M 187.5 332.476562 " fill-opacity="1" fill-rule="nonzero"/></g><g clip-path="url(#8d263685e7)"><g clip-path="url(#7ae78e568c)"><g clip-path="url(#6daf24ff31)"><path fill="#023d5d" d="M -666.265625 -584.699219 L 1291.078125 904.917969 L 1176.492188 1055.484375 L -780.851562 -434.136719 Z M -666.265625 -584.699219 " fill-opacity="1" fill-rule="nonzero"/></g></g></g><g clip-path="url(#3d1ce1b0a5)"><g clip-path="url(#d21c338223)"><g clip-path="url(#3b3f19dee2)"><path fill="#ffffff" d="M 59.359375 97.40625 L 58.070312 96.125 C 57.980469 96.03125 57.855469 96.039062 57.761719 96.128906 L 53.667969 100.285156 C 53.578125 100.371094 53.582031 100.5 53.671875 100.59375 L 54.960938 101.875 C 55.046875 101.96875 55.175781 101.960938 55.269531 101.871094 L 59.363281 97.714844 C 59.453125 97.628906 59.449219 97.480469 59.359375 97.40625 Z M 59.359375 97.40625 " fill-opacity="1" fill-rule="nonzero"/></g></g></g><g clip-path="url(#3f5de21cbf)"><g clip-path="url(#27e078bb89)"><g clip-path="url(#02ad623e40)"><path fill="#ffffff" d="M 54.601562 102.03125 L 53.488281 100.929688 C 53.367188 100.8125 53.175781 100.863281 53.125 101.011719 L 52.59375 102.667969 C 52.539062 102.835938 52.699219 103 52.859375 102.945312 L 54.503906 102.386719 C 54.675781 102.335938 54.71875 102.148438 54.601562 102.03125 Z M 54.601562 102.03125 " fill-opacity="1" fill-rule="nonzero"/></g></g></g><g clip-path="url(#ba6cae01d1)"><g clip-path="url(#351ff59870)"><g clip-path="url(#aad077c074)"><path fill="#ffffff" d="M 68.140625 90.730469 L 67.339844 89.9375 L 67.949219 89.3125 C 68.46875 88.777344 68.476562 87.929688 67.941406 87.410156 C 67.402344 86.894531 66.554688 86.886719 66.039062 87.421875 L 58.226562 95.34375 C 58.132812 95.433594 58.140625 95.5625 58.230469 95.652344 L 59.847656 97.246094 C 59.9375 97.335938 60.0625 97.328125 60.15625 97.242188 L 66.910156 90.402344 L 67.492188 90.96875 L 64.382812 94.109375 C 64.261719 94.246094 64.253906 94.445312 64.390625 94.566406 C 64.527344 94.6875 64.722656 94.695312 64.84375 94.558594 L 68.167969 91.171875 C 68.285156 91.054688 68.277344 90.851562 68.140625 90.730469 Z M 68.140625 90.730469 " fill-opacity="1" fill-rule="nonzero"/></g></g></g><g clip-path="url(#4401b78db8)"><g clip-path="url(#5fa6e892e0)"><g clip-path="url(#23c3e1023d)"><path fill="#ffffff" d="M 43.773438 103.34375 C 43.566406 103.300781 43.386719 103.203125 43.234375 103.007812 C 42.289062 101.890625 39.058594 101.769531 39.019531 101.777344 C 38.871094 101.78125 38.757812 101.648438 38.753906 101.503906 C 38.75 101.355469 38.882812 101.242188 39.03125 101.238281 C 39.175781 101.234375 42.53125 101.367188 43.636719 102.664062 C 44.066406 103.175781 45.203125 102.378906 46.035156 101.804688 C 46.742188 101.308594 47.167969 101.023438 47.492188 101.1875 C 47.578125 101.222656 47.710938 101.34375 47.726562 101.601562 C 47.753906 102.53125 47.957031 103.082031 48.125 103.140625 C 48.210938 103.175781 48.429688 103.078125 48.75 102.699219 C 49.316406 102.027344 49.695312 101.789062 50.050781 101.902344 C 50.519531 102.0625 50.613281 102.789062 50.695312 103.800781 C 50.71875 104.023438 50.761719 104.144531 50.816406 104.15625 C 51.035156 104.222656 51.671875 103.710938 52.109375 103.210938 C 52.207031 103.105469 52.371094 103.089844 52.496094 103.191406 C 52.601562 103.285156 52.617188 103.453125 52.519531 103.574219 C 52.246094 103.894531 51.316406 104.898438 50.660156 104.679688 C 50.375 104.582031 50.203125 104.308594 50.175781 103.847656 C 50.101562 102.964844 50.007812 102.492188 49.898438 102.410156 C 49.898438 102.410156 49.71875 102.40625 49.179688 103.046875 C 49.007812 103.246094 48.511719 103.839844 47.976562 103.648438 C 47.40625 103.449219 47.234375 102.507812 47.214844 101.707031 C 47.015625 101.789062 46.648438 102.050781 46.371094 102.242188 C 45.5625 102.785156 44.554688 103.5 43.773438 103.34375 Z M 43.773438 103.34375 " fill-opacity="1" fill-rule="nonzero"/></g></g></g></svg>